<svg xmlns="http://www.w3.org/2000/svg" xmlns:xlink="http://www.w3.org/1999/xlink" width="85" height="90" viewBox="0 0 85 90">
  <defs>
    <polygon id="celonis-logo---ems-green-a" points="0 .085 85.015 .085 85.015 89.635 0 89.635"/>
  </defs>
  <g fill="none" fill-rule="evenodd">
    <g transform="translate(0 .097)">
      <mask id="celonis-logo---ems-green-b" fill="#fff">
        <use xlink:href="#celonis-logo---ems-green-a"/>
      </mask>
      <path fill="#53FF37" d="M71.6263813,75.7453509 C63.9564828,83.6056552 53.6130548,87.9346004 42.5016146,87.9346004 C31.0246978,87.9346004 20.5819594,84.2309087 13.0969899,77.5061014 C5.74765923,70.9030588 1.70021501,61.8165274 1.70021501,51.9205436 C1.70021501,39.4501582 7.5184503,36.039286 17.1573955,30.3880892 C20.2099108,28.5984949 23.6693428,26.5703002 27.3127911,24.0033834 C35.5772738,18.1813144 39.2136024,12.6374604 41.8686937,8.58965112 C44.8401542,4.05934686 46.3318174,1.7856146 51.7969899,1.7856146 C57.5369087,1.7856146 63.3188154,4.54001623 68.5174564,9.75125355 C72.8785314,14.1229168 76.5880649,19.9632414 79.2447992,26.6409493 C81.9236227,33.3739716 83.3311278,40.4631602 83.3151989,47.142146 C83.3021014,52.5227951 82.2516755,57.7723692 80.1929939,62.744641 C78.1784909,67.6103002 75.2963002,71.9843367 71.6263813,75.7453509 M51.7969899,0.0852900609 C39.8165842,0.0852900609 43.4567465,10.5503002 26.3335619,22.6135862 C11.3984909,33.1350061 -0.000109533469,34.2288803 -0.000109533469,51.9205436 C-0.000109533469,73.235574 17.7276998,89.6349249 42.5016146,89.6349249 C66.7829939,89.6349249 84.9602556,69.9254726 85.0155282,47.1463448 C85.0686937,25.0713347 69.9791805,0.0852900609 51.7969899,0.0852900609" mask="url(#celonis-logo---ems-green-b)"/>
    </g>
    <path fill="#53FF37" d="M44.7114341,38.5556349 C46.8142941,38.5556349 48.5646389,39.091071 49.9611907,40.1604828 C51.3568296,41.2306247 52.2365659,42.7085963 52.5993043,44.5938499 L59.1822657,44.5940325 C58.5654097,41.0769128 56.9879452,38.2931197 54.4498722,36.2437485 C51.911069,34.1952901 48.7010081,33.1702394 44.820785,33.1702394 C41.9185132,33.1702394 39.3530568,33.7870953 37.1224077,35.0195294 C34.8915761,36.2528763 33.1412312,38.0302394 31.8719209,40.3507059 C30.6015152,42.6717201 29.9673164,45.3916187 29.9669513,48.5102191 C29.9669513,51.6653306 30.6006024,54.4038499 31.8704604,56.7243164 C33.1392231,59.0456957 34.8893854,60.8228763 37.1198519,62.0554929 C39.3503185,63.2886572 41.9155923,63.9049655 44.8178641,63.9049655 C48.6982698,63.9049655 51.9083306,62.8715172 54.4476815,60.8044381 C56.9861197,58.737359 58.5639493,55.9453509 59.1813529,52.4271359 L52.598574,52.4271359 C52.2354706,54.3131197 51.3555517,55.799854 49.9597302,56.8877039 C48.5628134,57.9757363 46.8124686,58.51957 44.7096085,58.51957 C42.3157546,58.51957 40.320785,57.6677647 38.7252475,55.9628763 C37.1289797,54.2587181 36.3319412,51.7741339 36.3323063,48.5104016 C36.3326714,45.2464868 37.1300751,42.7713955 38.7267079,41.0849452 C40.322428,39.3986775 42.3177627,38.5556349 44.7114341,38.5556349"/>
  </g>
</svg>
